<svg width="528" height="785" viewBox="0 0 528 785" fill="none" xmlns="http://www.w3.org/2000/svg">
<path d="M168.418 494.934H26.963C16.3243 494.934 8.45226 490.173 3.34694 480.651C-1.75837 471.129 -1.02308 461.821 5.5528 452.727L308.586 13.8961C313.077 7.85148 318.69 3.70573 325.426 1.45883C332.161 -0.787377 338.897 -0.439667 345.633 2.50196C352.369 5.17655 357.701 9.67001 361.631 15.9823C365.56 22.2947 366.963 29.0347 365.841 36.2024L329.194 328.036H500.639C512.24 328.036 520.419 333.145 525.177 343.362C529.935 353.579 528.679 363.235 521.408 372.329L187.582 773.127C183.091 778.744 177.304 782.395 170.221 784.08C163.138 785.765 156.576 785.136 150.535 782.194C144.227 779.519 139.348 775.159 135.9 769.115C132.452 763.07 131.156 756.33 132.011 748.894L168.418 494.934Z" fill="url(#paint0_linear_135_43)"/>
<defs>
<linearGradient id="paint0_linear_135_43" x1="264" y1="0" x2="264" y2="785" gradientUnits="userSpaceOnUse">
<stop stop-color="#FBFBFF"/>
<stop offset="1" stop-color="#CACAFF" stop-opacity="0"/>
</linearGradient>
</defs>
</svg>
