<svg width="367" height="153" viewBox="0 0 367 153" fill="none" xmlns="http://www.w3.org/2000/svg">
<path d="M182.478 64.836C182.287 66.552 181.698 68.06 180.71 69.36C179.722 70.6427 178.422 71.6393 176.81 72.35C175.215 73.0607 173.378 73.416 171.298 73.416C169.027 73.416 167.043 72.9913 165.344 72.142C163.645 71.2927 162.319 70.1053 161.366 68.58C160.43 67.0547 159.962 65.278 159.962 63.25C159.962 61.222 160.43 59.4453 161.366 57.92C162.319 56.3947 163.645 55.2073 165.344 54.358C167.043 53.5087 169.027 53.084 171.298 53.084C173.378 53.084 175.215 53.4393 176.81 54.15C178.422 54.8607 179.722 55.866 180.71 57.166C181.698 58.4487 182.287 59.948 182.478 61.664H177.07C176.897 60.832 176.559 60.13 176.056 59.558C175.553 58.9687 174.895 58.518 174.08 58.206C173.283 57.894 172.355 57.738 171.298 57.738C170.085 57.738 169.036 57.9633 168.152 58.414C167.268 58.8473 166.592 59.48 166.124 60.312C165.656 61.1267 165.422 62.106 165.422 63.25C165.422 64.394 165.656 65.382 166.124 66.214C166.592 67.0287 167.268 67.6613 168.152 68.112C169.036 68.5453 170.085 68.762 171.298 68.762C172.355 68.762 173.283 68.6147 174.08 68.32C174.895 68.0253 175.553 67.5833 176.056 66.994C176.559 66.4047 176.897 65.6853 177.07 64.836H182.478ZM190.504 68.97C188.407 68.97 186.803 68.3893 185.694 67.228C184.585 66.0667 184.03 64.3853 184.03 62.184V58.154H189.334V61.95C189.334 63.926 190.261 64.914 192.116 64.914C192.948 64.914 193.737 64.6887 194.482 64.238C195.227 63.77 195.869 63.094 196.406 62.21L196.666 65.616C196.233 66.656 195.461 67.4793 194.352 68.086C193.26 68.6753 191.977 68.97 190.504 68.97ZM195.834 73V58.154H201.164V73H195.834ZM217.493 73L216.817 67.644L217.519 65.59L216.817 63.536L217.493 58.154H223.005L222.069 65.564L223.005 73H217.493ZM218.741 65.59C218.498 67.15 218.013 68.5193 217.285 69.698C216.574 70.8767 215.664 71.7953 214.555 72.454C213.463 73.0953 212.215 73.416 210.811 73.416C209.355 73.416 208.072 73.0953 206.963 72.454C205.871 71.7953 205.013 70.8767 204.389 69.698C203.765 68.502 203.453 67.1327 203.453 65.59C203.453 64.0127 203.765 62.6347 204.389 61.456C205.013 60.2773 205.871 59.3587 206.963 58.7C208.072 58.0413 209.355 57.712 210.811 57.712C212.215 57.712 213.463 58.0413 214.555 58.7C215.664 59.3413 216.583 60.2513 217.311 61.43C218.039 62.5913 218.516 63.978 218.741 65.59ZM208.835 65.59C208.835 66.318 208.982 66.968 209.277 67.54C209.589 68.112 210.014 68.5627 210.551 68.892C211.088 69.204 211.704 69.36 212.397 69.36C213.125 69.36 213.81 69.204 214.451 68.892C215.092 68.5627 215.656 68.112 216.141 67.54C216.626 66.968 216.99 66.318 217.233 65.59C216.99 64.8447 216.626 64.186 216.141 63.614C215.656 63.042 215.092 62.5913 214.451 62.262C213.81 61.9327 213.125 61.768 212.397 61.768C211.704 61.768 211.088 61.9327 210.551 62.262C210.014 62.5913 209.589 63.042 209.277 63.614C208.982 64.186 208.835 64.8447 208.835 65.59ZM243.137 66.734C242.998 68.0687 242.513 69.2387 241.681 70.244C240.849 71.2493 239.765 72.0293 238.431 72.584C237.113 73.1387 235.631 73.416 233.985 73.416C232.165 73.416 230.561 73.0867 229.175 72.428C227.788 71.7693 226.705 70.8507 225.925 69.672C225.145 68.4933 224.755 67.1327 224.755 65.59C224.755 64.03 225.145 62.6607 225.925 61.482C226.705 60.3033 227.788 59.3847 229.175 58.726C230.561 58.05 232.165 57.712 233.985 57.712C235.631 57.712 237.113 57.998 238.431 58.57C239.765 59.1247 240.849 59.9047 241.681 60.91C242.513 61.898 242.998 63.068 243.137 64.42H237.859C237.668 63.536 237.226 62.86 236.533 62.392C235.839 61.9067 234.99 61.664 233.985 61.664C233.205 61.664 232.52 61.82 231.931 62.132C231.359 62.4267 230.908 62.8687 230.579 63.458C230.267 64.03 230.111 64.7407 230.111 65.59C230.111 66.422 230.267 67.1327 230.579 67.722C230.908 68.294 231.359 68.736 231.931 69.048C232.52 69.3427 233.205 69.49 233.985 69.49C234.99 69.49 235.839 69.2387 236.533 68.736C237.243 68.2333 237.685 67.566 237.859 66.734H243.137ZM249.354 59.974H254.684V73H249.354V59.974ZM243.712 58.154H260.326V62.158H243.712V58.154ZM262.891 58.154H279.011V73H273.681V59.662L276.125 62.106H265.543L267.779 60.052C267.883 61.0747 267.961 62.002 268.013 62.834C268.065 63.666 268.091 64.4113 268.091 65.07C268.091 67.982 267.64 70.088 266.739 71.388C265.855 72.6707 264.416 73.312 262.423 73.312C261.833 73.312 261.279 73.2513 260.759 73.13C260.239 73.0087 259.727 72.8093 259.225 72.532V68.762C259.537 68.8833 259.84 68.9787 260.135 69.048C260.447 69.1 260.724 69.126 260.967 69.126C261.816 69.126 262.414 68.7533 262.761 68.008C263.107 67.2627 263.281 66.0407 263.281 64.342C263.281 63.5273 263.246 62.6087 263.177 61.586C263.125 60.546 263.029 59.402 262.891 58.154ZM281.925 73V58.154H287.177V70.114L286.033 69.75L293.807 58.154H300.619V73H295.393V60.702L296.537 61.092L288.555 73H281.925ZM303.194 73L304.13 65.564L303.194 58.154H315.284C316.722 58.154 317.866 58.492 318.716 59.168C319.565 59.8267 319.99 60.728 319.99 61.872C319.99 62.9467 319.556 63.822 318.69 64.498C317.84 65.1567 316.662 65.564 315.154 65.72L315.492 64.862C317.242 64.9313 318.577 65.304 319.496 65.98C320.432 66.656 320.9 67.592 320.9 68.788C320.9 70.0707 320.423 71.0933 319.47 71.856C318.516 72.6187 317.234 73 315.622 73H303.194ZM308.316 71.882L306.262 69.698H313.854C314.426 69.698 314.85 69.5767 315.128 69.334C315.422 69.074 315.57 68.7187 315.57 68.268C315.57 67.852 315.414 67.514 315.102 67.254C314.807 66.9767 314.33 66.838 313.672 66.838H307.302V64.082H313.048C313.585 64.082 313.992 63.9607 314.27 63.718C314.547 63.4753 314.686 63.1547 314.686 62.756C314.686 62.3573 314.556 62.0367 314.296 61.794C314.053 61.5513 313.672 61.43 313.152 61.43H306.288L308.316 59.272L309.174 65.564L308.316 71.882ZM340.736 58.154H346.066V73H340.736V58.154ZM323.108 73V58.154H328.412V71.7L326.774 69.282H332.026C332.685 69.282 333.196 69.126 333.56 68.814C333.924 68.4847 334.106 68.034 334.106 67.462C334.106 66.8727 333.924 66.422 333.56 66.11C333.196 65.7807 332.685 65.616 332.026 65.616H326.748V62.028H332.91C334.228 62.028 335.372 62.262 336.342 62.73C337.313 63.1807 338.067 63.822 338.604 64.654C339.159 65.4687 339.436 66.422 339.436 67.514C339.436 68.6233 339.168 69.594 338.63 70.426C338.093 71.2407 337.339 71.8733 336.368 72.324C335.398 72.7747 334.271 73 332.988 73H323.108ZM357.691 73.416C355.889 73.416 354.277 73.0867 352.855 72.428C351.451 71.7693 350.342 70.8507 349.527 69.672C348.713 68.476 348.305 67.0893 348.305 65.512C348.305 63.9693 348.695 62.6173 349.475 61.456C350.255 60.2773 351.321 59.3587 352.673 58.7C354.043 58.0413 355.585 57.712 357.301 57.712C359.087 57.712 360.603 58.102 361.851 58.882C363.117 59.6447 364.087 60.728 364.763 62.132C365.457 63.536 365.803 65.1913 365.803 67.098H352.595V63.9H362.813L361.071 65.018C361.002 64.2553 360.811 63.614 360.499 63.094C360.187 62.5567 359.771 62.1493 359.251 61.872C358.749 61.5947 358.142 61.456 357.431 61.456C356.651 61.456 355.984 61.612 355.429 61.924C354.875 62.236 354.441 62.6693 354.129 63.224C353.817 63.7613 353.661 64.394 353.661 65.122C353.661 66.058 353.869 66.8553 354.285 67.514C354.719 68.1553 355.343 68.6493 356.157 68.996C356.989 69.3427 358.003 69.516 359.199 69.516C360.291 69.516 361.375 69.3773 362.449 69.1C363.541 68.8053 364.529 68.398 365.413 67.878V71.258C364.391 71.9513 363.221 72.4887 361.903 72.87C360.603 73.234 359.199 73.416 357.691 73.416Z" fill="#512DE6"/>
<path d="M167.372 99.338C165.916 99.338 164.625 99.1387 163.498 98.74C162.389 98.324 161.513 97.7347 160.872 96.972C160.231 96.2093 159.875 95.308 159.806 94.268H162.146C162.285 95.2733 162.805 96.0447 163.706 96.582C164.625 97.102 165.847 97.362 167.372 97.362C168.863 97.362 170.024 97.154 170.856 96.738C171.705 96.3047 172.13 95.6373 172.13 94.736C172.13 93.9907 171.783 93.4447 171.09 93.098C170.414 92.734 169.331 92.552 167.84 92.552H164.798V90.758H167.762C169.097 90.758 170.085 90.5327 170.726 90.082C171.385 89.6313 171.714 89.0853 171.714 88.444C171.714 87.6467 171.315 87.04 170.518 86.624C169.738 86.1907 168.715 85.974 167.45 85.974C166.063 85.974 164.928 86.2167 164.044 86.702C163.16 87.17 162.64 87.8807 162.484 88.834H160.144C160.248 87.9153 160.603 87.092 161.21 86.364C161.817 85.636 162.657 85.064 163.732 84.648C164.807 84.232 166.081 84.024 167.554 84.024C168.906 84.024 170.076 84.206 171.064 84.57C172.052 84.9167 172.815 85.402 173.352 86.026C173.889 86.65 174.158 87.3607 174.158 88.158C174.158 88.834 173.95 89.4493 173.534 90.004C173.135 90.5587 172.52 91.0007 171.688 91.33C170.873 91.6593 169.833 91.824 168.568 91.824V91.382C170.457 91.33 171.931 91.6073 172.988 92.214C174.063 92.8207 174.6 93.696 174.6 94.84C174.6 95.724 174.314 96.504 173.742 97.18C173.187 97.856 172.373 98.3847 171.298 98.766C170.223 99.1473 168.915 99.338 167.372 99.338ZM191.542 99L191.022 93.462L191.672 91.668L191.022 89.9L191.542 84.362H193.986L193.31 91.668L193.986 99H191.542ZM192.478 91.668C192.096 93.1933 191.507 94.5367 190.71 95.698C189.93 96.842 188.976 97.7347 187.85 98.376C186.74 99.0173 185.51 99.338 184.158 99.338C182.719 99.338 181.445 99.0173 180.336 98.376C179.226 97.7173 178.351 96.816 177.71 95.672C177.086 94.5107 176.774 93.176 176.774 91.668C176.774 90.1427 177.086 88.808 177.71 87.664C178.351 86.52 179.226 85.6273 180.336 84.986C181.445 84.3447 182.719 84.024 184.158 84.024C185.51 84.024 186.74 84.3447 187.85 84.986C188.976 85.6273 189.938 86.52 190.736 87.664C191.533 88.808 192.114 90.1427 192.478 91.668ZM179.218 91.668C179.218 92.7773 179.443 93.7567 179.894 94.606C180.362 95.4553 180.994 96.1227 181.792 96.608C182.606 97.076 183.525 97.31 184.548 97.31C185.588 97.31 186.541 97.076 187.408 96.608C188.292 96.1227 189.072 95.4553 189.748 94.606C190.441 93.7567 191.004 92.7773 191.438 91.668C191.004 90.5587 190.441 89.5793 189.748 88.73C189.072 87.8807 188.292 87.222 187.408 86.754C186.541 86.2687 185.588 86.026 184.548 86.026C183.525 86.026 182.606 86.2687 181.792 86.754C180.994 87.222 180.362 87.8807 179.894 88.73C179.443 89.5793 179.218 90.5587 179.218 91.668ZM197.251 99L197.927 91.668L197.251 84.362H207.183C208.605 84.362 209.705 84.6913 210.485 85.35C211.283 85.9913 211.681 86.9013 211.681 88.08C211.681 89.1547 211.283 90.0127 210.485 90.654C209.705 91.278 208.622 91.642 207.235 91.746L207.469 91.252C209.133 91.2693 210.407 91.6073 211.291 92.266C212.175 92.9073 212.617 93.826 212.617 95.022C212.617 96.27 212.167 97.2493 211.265 97.96C210.381 98.6533 209.142 99 207.547 99H197.251ZM199.591 98.298L198.681 97.18H207.157C208.18 97.18 208.934 96.9807 209.419 96.582C209.922 96.1833 210.173 95.6113 210.173 94.866C210.173 94.1033 209.87 93.5053 209.263 93.072C208.674 92.6387 207.747 92.422 206.481 92.422H199.253V90.706H206.325C207.279 90.706 207.998 90.4893 208.483 90.056C208.986 89.6227 209.237 89.0507 209.237 88.34C209.237 87.664 209.012 87.1353 208.561 86.754C208.128 86.3553 207.452 86.156 206.533 86.156H198.707L199.591 85.064L200.241 91.668L199.591 98.298ZM223.416 99.338C221.7 99.338 220.183 99.0173 218.866 98.376C217.566 97.7347 216.552 96.8333 215.824 95.672C215.096 94.5107 214.732 93.176 214.732 91.668C214.732 90.1427 215.096 88.808 215.824 87.664C216.552 86.52 217.566 85.6273 218.866 84.986C220.183 84.3447 221.7 84.024 223.416 84.024C225.149 84.024 226.666 84.3447 227.966 84.986C229.266 85.6273 230.28 86.52 231.008 87.664C231.753 88.808 232.126 90.1427 232.126 91.668C232.126 93.176 231.753 94.5107 231.008 95.672C230.28 96.8333 229.266 97.7347 227.966 98.376C226.666 99.0173 225.149 99.338 223.416 99.338ZM223.416 97.336C224.699 97.336 225.808 97.1107 226.744 96.66C227.68 96.192 228.399 95.5333 228.902 94.684C229.422 93.8347 229.682 92.8293 229.682 91.668C229.682 90.524 229.422 89.5273 228.902 88.678C228.399 87.8287 227.68 87.17 226.744 86.702C225.808 86.234 224.699 86 223.416 86C222.151 86 221.041 86.234 220.088 86.702C219.152 87.17 218.433 87.8287 217.93 88.678C217.427 89.5273 217.176 90.524 217.176 91.668C217.176 92.8293 217.427 93.8347 217.93 94.684C218.433 95.5333 219.152 96.192 220.088 96.66C221.041 97.1107 222.151 97.336 223.416 97.336ZM252.577 97.05V102.796H250.445V99H234.845V102.796H232.739V97.05H235.937L236.639 97.076H248.105L248.807 97.05H252.577ZM236.119 84.362H249.821V98.298H247.429V85.194L248.547 86.286H237.393L238.407 85.506C238.493 86.286 238.554 87.0573 238.589 87.82C238.623 88.5653 238.641 89.2673 238.641 89.926C238.641 92.526 238.329 94.58 237.705 96.088C237.098 97.5787 236.257 98.324 235.183 98.324L234.195 97.466C235.651 96.374 236.379 93.7133 236.379 89.484C236.379 88.6693 236.353 87.8287 236.301 86.962C236.266 86.078 236.205 85.2113 236.119 84.362ZM259.407 94.19C257.431 94.19 255.931 93.6613 254.909 92.604C253.886 91.5293 253.375 89.952 253.375 87.872V84.362H255.767V87.794C255.767 90.706 257.127 92.162 259.849 92.162C260.958 92.162 261.989 91.928 262.943 91.46C263.913 90.9747 264.823 90.2467 265.673 89.276L265.855 91.174C265.161 92.1273 264.251 92.8727 263.125 93.41C261.998 93.93 260.759 94.19 259.407 94.19ZM265.335 99V84.362H267.727V99H265.335ZM285.538 99L285.018 93.462L285.668 91.668L285.018 89.9L285.538 84.362H287.982L287.306 91.668L287.982 99H285.538ZM286.474 91.668C286.092 93.1933 285.503 94.5367 284.706 95.698C283.926 96.842 282.972 97.7347 281.846 98.376C280.736 99.0173 279.506 99.338 278.154 99.338C276.715 99.338 275.441 99.0173 274.332 98.376C273.222 97.7173 272.347 96.816 271.706 95.672C271.082 94.5107 270.77 93.176 270.77 91.668C270.77 90.1427 271.082 88.808 271.706 87.664C272.347 86.52 273.222 85.6273 274.332 84.986C275.441 84.3447 276.715 84.024 278.154 84.024C279.506 84.024 280.736 84.3447 281.846 84.986C282.972 85.6273 283.934 86.52 284.732 87.664C285.529 88.808 286.11 90.1427 286.474 91.668ZM273.214 91.668C273.214 92.7773 273.439 93.7567 273.89 94.606C274.358 95.4553 274.99 96.1227 275.788 96.608C276.602 97.076 277.521 97.31 278.544 97.31C279.584 97.31 280.537 97.076 281.404 96.608C282.288 96.1227 283.068 95.4553 283.744 94.606C284.437 93.7567 285 92.7773 285.434 91.668C285 90.5587 284.437 89.5793 283.744 88.73C283.068 87.8807 282.288 87.222 281.404 86.754C280.537 86.2687 279.584 86.026 278.544 86.026C277.521 86.026 276.602 86.2687 275.788 86.754C274.99 87.222 274.358 87.8807 273.89 88.73C273.439 89.5793 273.214 90.5587 273.214 91.668ZM291.559 84.362H293.925V99H291.559V84.362ZM304.143 84.362H306.535V99H304.143V84.362ZM292.885 90.628H305.261V92.578H292.885V90.628ZM318.121 99.338C316.44 99.338 314.949 99.0173 313.649 98.376C312.367 97.7173 311.353 96.816 310.607 95.672C309.879 94.5107 309.515 93.176 309.515 91.668C309.515 90.1427 309.862 88.808 310.555 87.664C311.249 86.52 312.211 85.6273 313.441 84.986C314.672 84.3447 316.085 84.024 317.679 84.024C319.257 84.024 320.635 84.3707 321.813 85.064C322.992 85.7573 323.902 86.7367 324.543 88.002C325.202 89.25 325.531 90.706 325.531 92.37H311.335V90.472H324.517L323.113 91.33C323.061 90.238 322.801 89.2933 322.333 88.496C321.865 87.6987 321.233 87.0833 320.435 86.65C319.638 86.2167 318.711 86 317.653 86C316.509 86 315.513 86.234 314.663 86.702C313.814 87.1527 313.147 87.794 312.661 88.626C312.193 89.458 311.959 90.4373 311.959 91.564C311.959 92.7427 312.228 93.7653 312.765 94.632C313.303 95.4987 314.057 96.166 315.027 96.634C315.998 97.102 317.142 97.336 318.459 97.336C319.655 97.336 320.825 97.1367 321.969 96.738C323.131 96.3393 324.171 95.7933 325.089 95.1V96.972C324.188 97.7 323.113 98.2807 321.865 98.714C320.617 99.13 319.369 99.338 318.121 99.338Z" fill="#1B2559"/>
<g filter="url(#filter0_d_3_15667)">
<circle cx="76.5" cy="72.5" r="54.5" fill="url(#paint0_linear_3_15667)"/>
</g>
<g filter="url(#filter1_ddd_3_15667)">
<path d="M76.4999 99.2013C91.2467 99.2013 103.201 87.2467 103.201 72.5C103.201 69.7039 102.771 67.0081 101.974 64.4753C101.876 64.1637 101.507 64.0375 101.225 64.2018C99.4519 65.2337 97.3904 65.8247 95.1909 65.8247C88.5548 65.8247 83.1753 60.4451 83.1753 53.809C83.1753 51.6095 83.7663 49.548 84.7981 47.7747C84.9624 47.4924 84.8362 47.1236 84.5247 47.0255C81.9918 46.2284 79.296 45.7986 76.4999 45.7986C61.7532 45.7986 49.7986 57.7532 49.7986 72.5C49.7986 76.7714 50.8015 80.8085 52.5848 84.3887C53.0587 85.3401 53.2164 86.4276 52.9416 87.4544L51.3513 93.3982C50.6609 95.9784 53.0215 98.339 55.6017 97.6486L61.5455 96.0583C62.5723 95.7835 63.6598 95.9413 64.6112 96.4151C68.1914 98.1984 72.2286 99.2013 76.4999 99.2013Z" fill="white"/>
</g>
<path d="M62.9666 79.4496C65.0171 84.1508 73.2193 87.0237 80.6012 85.7179C85.1124 84.6732 88.8033 82.3226 90.0337 79.4496" stroke="#4B26E2" stroke-width="4" stroke-linecap="round" stroke-linejoin="round"/>
<g filter="url(#filter2_ddd_3_15667)">
<circle cx="95.1544" cy="53.8456" r="8.04698" fill="white"/>
</g>
<defs>
<filter id="filter0_d_3_15667" x="0.799999" y="0.799999" width="151.4" height="151.4" filterUnits="userSpaceOnUse" color-interpolation-filters="sRGB">
<feFlood flood-opacity="0" result="BackgroundImageFix"/>
<feColorMatrix in="SourceAlpha" type="matrix" values="0 0 0 0 0 0 0 0 0 0 0 0 0 0 0 0 0 0 127 0" result="hardAlpha"/>
<feOffset dy="4"/>
<feGaussianBlur stdDeviation="10.6"/>
<feComposite in2="hardAlpha" operator="out"/>
<feColorMatrix type="matrix" values="0 0 0 0 0.290196 0 0 0 0 0.145098 0 0 0 0 0.886275 0 0 0 0.22 0"/>
<feBlend mode="normal" in2="BackgroundImageFix" result="effect1_dropShadow_3_15667"/>
<feBlend mode="normal" in="SourceGraphic" in2="effect1_dropShadow_3_15667" result="shape"/>
</filter>
<filter id="filter1_ddd_3_15667" x="43.4286" y="40.2386" width="65.4026" height="66.5027" filterUnits="userSpaceOnUse" color-interpolation-filters="sRGB">
<feFlood flood-opacity="0" result="BackgroundImageFix"/>
<feColorMatrix in="SourceAlpha" type="matrix" values="0 0 0 0 0 0 0 0 0 0 0 0 0 0 0 0 0 0 127 0" result="hardAlpha"/>
<feOffset dx="1.24" dy="-1.17"/>
<feGaussianBlur stdDeviation="2.195"/>
<feComposite in2="hardAlpha" operator="out"/>
<feColorMatrix type="matrix" values="0 0 0 0 1 0 0 0 0 1 0 0 0 0 1 0 0 0 0.35 0"/>
<feBlend mode="normal" in2="BackgroundImageFix" result="effect1_dropShadow_3_15667"/>
<feColorMatrix in="SourceAlpha" type="matrix" values="0 0 0 0 0 0 0 0 0 0 0 0 0 0 0 0 0 0 127 0" result="hardAlpha"/>
<feOffset dy="3.07"/>
<feGaussianBlur stdDeviation="1.94"/>
<feComposite in2="hardAlpha" operator="out"/>
<feColorMatrix type="matrix" values="0 0 0 0 1 0 0 0 0 1 0 0 0 0 1 0 0 0 0.5 0"/>
<feBlend mode="normal" in2="effect1_dropShadow_3_15667" result="effect2_dropShadow_3_15667"/>
<feColorMatrix in="SourceAlpha" type="matrix" values="0 0 0 0 0 0 0 0 0 0 0 0 0 0 0 0 0 0 127 0" result="hardAlpha"/>
<feOffset dx="-1.32" dy="2.49"/>
<feGaussianBlur stdDeviation="2.525"/>
<feComposite in2="hardAlpha" operator="out"/>
<feColorMatrix type="matrix" values="0 0 0 0 0.0509804 0 0 0 0 0.0156863 0 0 0 0 0.192157 0 0 0 0.25 0"/>
<feBlend mode="normal" in2="effect2_dropShadow_3_15667" result="effect3_dropShadow_3_15667"/>
<feBlend mode="normal" in="SourceGraphic" in2="effect3_dropShadow_3_15667" result="shape"/>
</filter>
<filter id="filter2_ddd_3_15667" x="83.1074" y="40.2386" width="25.724" height="29.6539" filterUnits="userSpaceOnUse" color-interpolation-filters="sRGB">
<feFlood flood-opacity="0" result="BackgroundImageFix"/>
<feColorMatrix in="SourceAlpha" type="matrix" values="0 0 0 0 0 0 0 0 0 0 0 0 0 0 0 0 0 0 127 0" result="hardAlpha"/>
<feOffset dx="1.24" dy="-1.17"/>
<feGaussianBlur stdDeviation="2.195"/>
<feComposite in2="hardAlpha" operator="out"/>
<feColorMatrix type="matrix" values="0 0 0 0 1 0 0 0 0 1 0 0 0 0 1 0 0 0 0.35 0"/>
<feBlend mode="normal" in2="BackgroundImageFix" result="effect1_dropShadow_3_15667"/>
<feColorMatrix in="SourceAlpha" type="matrix" values="0 0 0 0 0 0 0 0 0 0 0 0 0 0 0 0 0 0 127 0" result="hardAlpha"/>
<feOffset dy="3.07"/>
<feGaussianBlur stdDeviation="1.94"/>
<feComposite in2="hardAlpha" operator="out"/>
<feColorMatrix type="matrix" values="0 0 0 0 1 0 0 0 0 1 0 0 0 0 1 0 0 0 1 0"/>
<feBlend mode="normal" in2="effect1_dropShadow_3_15667" result="effect2_dropShadow_3_15667"/>
<feColorMatrix in="SourceAlpha" type="matrix" values="0 0 0 0 0 0 0 0 0 0 0 0 0 0 0 0 0 0 127 0" result="hardAlpha"/>
<feOffset dy="4"/>
<feGaussianBlur stdDeviation="2"/>
<feComposite in2="hardAlpha" operator="out"/>
<feColorMatrix type="matrix" values="0 0 0 0 0.0509804 0 0 0 0 0.0156863 0 0 0 0 0.192157 0 0 0 0.25 0"/>
<feBlend mode="normal" in2="effect2_dropShadow_3_15667" result="effect3_dropShadow_3_15667"/>
<feBlend mode="normal" in="SourceGraphic" in2="effect3_dropShadow_3_15667" result="shape"/>
</filter>
<linearGradient id="paint0_linear_3_15667" x1="87.0794" y1="108.406" x2="110.26" y2="24.6106" gradientUnits="userSpaceOnUse">
<stop stop-color="#4A25E1"/>
<stop offset="0.927091" stop-color="#7B5AFF"/>
</linearGradient>
</defs>
</svg>
