<svg width="97" height="100" viewBox="0 0 97 100" fill="none" xmlns="http://www.w3.org/2000/svg">
<rect x="29" width="39" height="39" rx="19.5" fill="url(#paint0_linear_157_38)"/>
<g filter="url(#filter0_d_157_38)">
<path d="M48.5 19.0461C47.599 19.0461 46.8577 18.7622 46.2762 18.1944C45.6946 17.6266 45.4039 16.9028 45.4039 16.023C45.4039 15.1375 45.6946 14.4122 46.2762 13.8473C46.8577 13.2824 47.599 13 48.5 13C49.401 13 50.1423 13.2824 50.7238 13.8473C51.3054 14.4122 51.5961 15.1375 51.5961 16.023C51.5961 16.9028 51.3054 17.6266 50.7238 18.1944C50.1423 18.7622 49.401 19.0461 48.5 19.0461ZM42.5769 26C42.2778 26 42.0235 25.8978 41.8141 25.6933C41.6047 25.4888 41.5 25.2406 41.5 24.9485V24.2703C41.5 23.7808 41.6328 23.3543 41.8985 22.991C42.1641 22.6276 42.5093 22.3484 42.9341 22.1533C43.9165 21.7269 44.8636 21.4056 45.7754 21.1894C46.6872 20.9733 47.5954 20.8652 48.5 20.8652C49.4046 20.8652 50.3104 20.9756 51.2174 21.1964C52.1244 21.4172 53.0691 21.7362 54.0515 22.1533C54.4859 22.3484 54.8359 22.6276 55.1015 22.991C55.3672 23.3543 55.5 23.7808 55.5 24.2703V24.9485C55.5 25.2406 55.3953 25.4888 55.1859 25.6933C54.9765 25.8978 54.7222 26 54.4231 26H42.5769Z" fill="#603CFF"/>
</g>
<defs>
<filter id="filter0_d_157_38" x="0.549999" y="4.55" width="95.9" height="94.9" filterUnits="userSpaceOnUse" color-interpolation-filters="sRGB">
<feFlood flood-opacity="0" result="BackgroundImageFix"/>
<feColorMatrix in="SourceAlpha" type="matrix" values="0 0 0 0 0 0 0 0 0 0 0 0 0 0 0 0 0 0 127 0" result="hardAlpha"/>
<feOffset dy="32.5"/>
<feGaussianBlur stdDeviation="20.475"/>
<feComposite in2="hardAlpha" operator="out"/>
<feColorMatrix type="matrix" values="0 0 0 0 0.262745 0 0 0 0 0.0941176 0 0 0 0 1 0 0 0 0.28 0"/>
<feBlend mode="normal" in2="BackgroundImageFix" result="effect1_dropShadow_157_38"/>
<feBlend mode="normal" in="SourceGraphic" in2="effect1_dropShadow_157_38" result="shape"/>
</filter>
<linearGradient id="paint0_linear_157_38" x1="48.5" y1="0" x2="48.5" y2="39" gradientUnits="userSpaceOnUse">
<stop stop-color="#FBFBFF"/>
<stop offset="1" stop-color="#CACAFF"/>
</linearGradient>
</defs>
</svg>
